<svg xmlns="http://www.w3.org/2000/svg" viewBox="0 0 200 200" width="200" height="200">
  <ellipse cx="100" cy="120" rx="60" ry="65" fill="#F59E0B"/>
  <ellipse cx="100" cy="130" rx="40" ry="45" fill="#FEF3C7"/>
  <path d="M50 110 Q35 140 55 165 Q70 150 65 115 Z" fill="#D97706"/>
  <path d="M150 110 Q165 140 145 165 Q130 150 135 115 Z" fill="#D97706"/>
  <path d="M65 65 L55 40 L75 60 Z" fill="#D97706"/>
  <path d="M135 65 L145 40 L125 60 Z" fill="#D97706"/>
  <circle cx="80" cy="85" r="20" fill="#fff"/>
  <circle cx="82" cy="87" r="9" fill="#1C1917"/>
  <circle cx="85" cy="84" r="3" fill="#fff"/>
  <circle cx="120" cy="85" r="20" fill="#fff"/>
  <circle cx="118" cy="87" r="9" fill="#1C1917"/>
  <circle cx="121" cy="84" r="3" fill="#fff"/>
  <path d="M100 100 L93 112 L107 112 Z" fill="#D97706"/>
  <path d="M85 180 L82 192 M90 180 L92 192 M95 180 L102 192" stroke="#D97706" stroke-width="3" stroke-linecap="round"/>
  <path d="M115 180 L118 192 M110 180 L108 192 M105 180 L98 192" stroke="#D97706" stroke-width="3" stroke-linecap="round"/>
  <path d="M130 125 L170 125 L180 140 L170 155 L130 155 Z" fill="#10B981"/>
  <circle cx="172" cy="140" r="3" fill="#FAFAF9"/>
  <path d="M152 138 L152 148 M148 144 L152 148 L156 144" stroke="#fff" stroke-width="2" stroke-linecap="round" stroke-linejoin="round" fill="none"/>
</svg>
